{
	"asset":{
		"generator":"Khronos glTF Blender I/O v4.5.48",
		"version":"2.0"
	},
	"extensionsUsed":[
		"KHR_materials_specular"
	],
	"scene":0,
	"scenes":[
		{
			"name":"Scene",
			"nodes":[
				0
			]
		}
	],
	"nodes":[
		{
			"mesh":0,
			"name":"material",
			"rotation":[
				0.70710688829422,
				0,
				0,
				0.7071066498756409
			]
		}
	],
	"materials":[
		{
			"doubleSided":true,
			"extensions":{
				"KHR_materials_specular":{
					"specularColorFactor":[
						2.0,
						2.0,
						2.0
					]
				}
			},
			"name":"Material.001",
			"normalTexture":{
				"index":0
			},
			"pbrMetallicRoughness":{
				"baseColorTexture":{
					"index":1
				},
				"metallicRoughnessTexture":{
					"index":2
				}
			}
		}
	],
	"meshes":[
		{
			"name":"material",
			"primitives":[
				{
					"attributes":{
						"POSITION":0,
						"NORMAL":1,
						"TEXCOORD_0":2
					},
					"indices":3,
					"material":0
				}
			]
		}
	],
	"textures":[
		{
			"sampler":0,
			"source":0
		},
		{
			"sampler":0,
			"source":1
		},
		{
			"sampler":0,
			"source":2
		}
	],
	"images":[
		{
			"mimeType":"image/png",
			"name":"texture_pbr_20250901_normal",
			"uri":"texture_pbr_20250901_normal.png"
		},
		{
			"mimeType":"image/png",
			"name":"texture_pbr_20250901",
			"uri":"texture_pbr_20250901.png"
		},
		{
			"mimeType":"image/png",
			"name":"texture_pbr_20250901_metallic-texture_pbr_20250901_roughness",
			"uri":"texture_pbr_20250901_metallic-texture_pbr_20250901_roughness.png"
		}
	],
	"accessors":[
		{
			"bufferView":0,
			"componentType":5126,
			"count":892445,
			"max":[
				0.3629469871520996,
				0.2497739940881729,
				0.4302999973297119
			],
			"min":[
				-0.3629469871520996,
				-0.2494799941778183,
				-0.43543100357055664
			],
			"type":"VEC3"
		},
		{
			"bufferView":1,
			"componentType":5126,
			"count":892445,
			"type":"VEC3"
		},
		{
			"bufferView":2,
			"componentType":5126,
			"count":892445,
			"type":"VEC2"
		},
		{
			"bufferView":3,
			"componentType":5125,
			"count":4500000,
			"type":"SCALAR"
		}
	],
	"bufferViews":[
		{
			"buffer":0,
			"byteLength":10709340,
			"byteOffset":0,
			"target":34962
		},
		{
			"buffer":0,
			"byteLength":10709340,
			"byteOffset":10709340,
			"target":34962
		},
		{
			"buffer":0,
			"byteLength":7139560,
			"byteOffset":21418680,
			"target":34962
		},
		{
			"buffer":0,
			"byteLength":18000000,
			"byteOffset":28558240,
			"target":34963
		}
	],
	"samplers":[
		{
			"magFilter":9729,
			"minFilter":9987
		}
	],
	"buffers":[
		{
			"byteLength":46558240,
			"uri":"Untitled.bin"
		}
	]
}
