<!-- SVG Dragon Việt Nam style, highly visible, gold color, with bold lines -->
<svg id="svg-dragon-vietnam" viewBox="0 0 600 180" fill="none" xmlns="http://www.w3.org/2000/svg" style="width:340px;max-width:60vw;">
  <g filter="url(#glow)">
    <path d="M30 120 Q80 40 180 80 Q250 110 320 60 Q400 10 470 80 Q520 130 570 60" stroke="#FFD700" stroke-width="12" fill="none"/>
    <path d="M570 60 Q590 80 580 100 Q570 120 550 110 Q540 100 550 90 Q560 80 570 60 Z" fill="#FFD700" stroke="#B8860B" stroke-width="4"/>
    <ellipse cx="30" cy="120" rx="12" ry="16" fill="#FFD700" stroke="#B8860B" stroke-width="4"/>
    <circle cx="570" cy="60" r="10" fill="#FFD700" stroke="#B8860B" stroke-width="4"/>
    <ellipse cx="180" cy="80" rx="10" ry="18" fill="#FFD700" stroke="#B8860B" stroke-width="4"/>
    <ellipse cx="320" cy="60" rx="8" ry="14" fill="#FFD700" stroke="#B8860B" stroke-width="4"/>
    <ellipse cx="470" cy="80" rx="10" ry="18" fill="#FFD700" stroke="#B8860B" stroke-width="4"/>
    <!-- Dragon head -->
    <ellipse cx="570" cy="60" rx="18" ry="14" fill="#FFD700" stroke="#B8860B" stroke-width="6"/>
    <ellipse cx="585" cy="55" rx="3" ry="5" fill="#B8860B"/>
    <ellipse cx="555" cy="65" rx="3" ry="5" fill="#B8860B"/>
    <ellipse cx="580" cy="50" rx="2" ry="3" fill="#fff"/>
    <ellipse cx="560" cy="60" rx="2" ry="3" fill="#fff"/>
    <path d="M590 60 Q600 50 595 70" stroke="#B8860B" stroke-width="3" fill="none"/>
    <path d="M550 60 Q540 50 545 70" stroke="#B8860B" stroke-width="3" fill="none"/>
  </g>
  <defs>
    <filter id="glow" x="-20" y="-20" width="640" height="220" filterUnits="userSpaceOnUse">
      <feGaussianBlur stdDeviation="6" result="blur"/>
      <feMerge>
        <feMergeNode in="blur"/>
        <feMergeNode in="SourceGraphic"/>
      </feMerge>
    </filter>
  </defs>
</svg>
